<svg width="1200" height="760" viewBox="0 0 1200 760" fill="none" xmlns="http://www.w3.org/2000/svg">
  <rect width="1200" height="760" rx="36" fill="#F7F4EC"/>
  <rect x="40" y="40" width="1120" height="680" rx="30" fill="#FBFAF5" stroke="#E6DED2" stroke-width="2"/>
  <text x="92" y="112" fill="#3D8A88" font-family="Arial, sans-serif" font-size="22" font-weight="700">Design package</text>
  <text x="92" y="166" fill="#26372D" font-family="Georgia, serif" font-size="42" font-weight="700">Route map, construct logic, and assay plan should be readable together.</text>

  <rect x="92" y="228" width="312" height="426" rx="28" fill="#F6FBF8" stroke="#D7E7DE" stroke-width="2"/>
  <text x="126" y="280" fill="#26372D" font-family="Arial, sans-serif" font-size="28" font-weight="700">1. Route map</text>
  <rect x="128" y="324" width="88" height="52" rx="18" fill="#F2DDE6"/>
  <rect x="252" y="324" width="88" height="52" rx="18" fill="#D6E6D7"/>
  <rect x="128" y="432" width="88" height="52" rx="18" fill="#D5E6F1"/>
  <rect x="252" y="432" width="88" height="52" rx="18" fill="#F1E6C9"/>
  <path d="M216 350H252" stroke="#648872" stroke-width="8" stroke-linecap="round"/>
  <path d="M216 458H252" stroke="#648872" stroke-width="8" stroke-linecap="round"/>
  <path d="M172 376V432" stroke="#648872" stroke-width="8" stroke-linecap="round"/>
  <path d="M296 376V432" stroke="#648872" stroke-width="8" stroke-linecap="round"/>
  <text x="148" y="356" fill="#7E5C6C" font-family="Arial, sans-serif" font-size="18" font-weight="700">Tryptophan</text>
  <text x="272" y="356" fill="#557A62" font-family="Arial, sans-serif" font-size="18" font-weight="700">Serotonin</text>
  <text x="134" y="464" fill="#5A7584" font-family="Arial, sans-serif" font-size="16" font-weight="700">N-acetyl</text>
  <text x="266" y="464" fill="#967A32" font-family="Arial, sans-serif" font-size="18" font-weight="700">Melatonin</text>
  <text x="128" y="556" fill="#6D716B" font-family="Arial, sans-serif" font-size="20">Show the route as a sequence, not a black box.</text>
  <text x="128" y="586" fill="#6D716B" font-family="Arial, sans-serif" font-size="20">Reviewers should see where the build may stall.</text>

  <rect x="444" y="228" width="312" height="426" rx="28" fill="#FFF9FB" stroke="#E6D9E2" stroke-width="2"/>
  <text x="478" y="280" fill="#26372D" font-family="Arial, sans-serif" font-size="28" font-weight="700">2. Construct package</text>
  <rect x="492" y="334" width="212" height="44" rx="16" fill="#E3F0E6"/>
  <rect x="520" y="392" width="58" height="44" rx="12" fill="#F2DDE6"/>
  <rect x="590" y="392" width="58" height="44" rx="12" fill="#D5E6F1"/>
  <rect x="660" y="392" width="58" height="44" rx="12" fill="#F1E6C9"/>
  <text x="544" y="419" fill="#7E5C6C" font-family="Arial, sans-serif" font-size="16" font-weight="700">P1</text>
  <text x="613" y="419" fill="#5A7584" font-family="Arial, sans-serif" font-size="16" font-weight="700">gene</text>
  <text x="682" y="419" fill="#967A32" font-family="Arial, sans-serif" font-size="16" font-weight="700">gene</text>
  <path d="M492 474H704" stroke="#648872" stroke-width="8" stroke-linecap="round"/>
  <circle cx="530" cy="474" r="10" fill="#9A4E70"/>
  <circle cx="598" cy="474" r="10" fill="#3D8A88"/>
  <circle cx="666" cy="474" r="10" fill="#C69743"/>
  <text x="492" y="556" fill="#6D716B" font-family="Arial, sans-serif" font-size="20">Make promoter order, enzyme order,</text>
  <text x="492" y="586" fill="#6D716B" font-family="Arial, sans-serif" font-size="20">and construct variants easy to compare.</text>

  <rect x="796" y="228" width="312" height="426" rx="28" fill="#FFF9F3" stroke="#E7D9D4" stroke-width="2"/>
  <text x="830" y="280" fill="#26372D" font-family="Arial, sans-serif" font-size="28" font-weight="700">3. Assay plan</text>
  <rect x="840" y="334" width="224" height="144" rx="18" fill="#F6F1E8"/>
  <path d="M868 430C900 386 944 372 980 396C1014 418 1028 386 1040 360" stroke="#3D8A88" stroke-width="8" stroke-linecap="round"/>
  <path d="M868 450C900 430 944 430 980 446C1010 458 1030 448 1040 432" stroke="#9A4E70" stroke-width="8" stroke-linecap="round"/>
  <text x="846" y="520" fill="#6D716B" font-family="Arial, sans-serif" font-size="20">Plan the analytical proof before the build</text>
  <text x="846" y="550" fill="#6D716B" font-family="Arial, sans-serif" font-size="20">so titers and intermediates answer design questions.</text>
  <rect x="846" y="584" width="214" height="40" rx="14" fill="#F1E6ED"/>
  <text x="876" y="610" fill="#7A6C74" font-family="Arial, sans-serif" font-size="18">standard + sample + control</text>
</svg>
